# xmcd CD database file generated by LOLA_Freedb v0.9beta0
# 
# Track frame offsets:
#      150
#      14786
#      25937
#      36818
#      53825
#      68048
#      80515
#      95635
#      106295
#      119941
#      136132
#      151529
#      171061
#      185829
#      203499
#      213147
#      226349
#      238251
#      249497
#      259296
# 
# Disc length: 3678 seconds
# 
# Revision: 2 
# Processed by: cddbd v1.5.2PL0 Copyright (c) Steve Scherf et al.
# Submitted via: LOLA_Freedb v0.9beta0
# 
DISCID=170e5c14
DTITLE=Various Artist - Country -Hits 100 CD2
DYEAR=1900
DGENRE=Country
TTITLE0=John Denver - Take me home, country roads
TTITLE1=Johnny Cash - Oh lonesome me
TTITLE2=Roger Miller - King of the road
TTITLE3=Lynn Anderson - Blue bayou
TTITLE4=Stonewall Jackson - Don't be angry
TTITLE5=Wynn Stewart - Wishful Thinking
TTITLE6=Merle Haggard - Today I started loving you again
TTITLE7=Sammi Smith - The letter
TTITLE8=Hank Snow - (Answer to) The blue velvet band
TTITLE9=Will Rivers - Below no po
TTITLE10=Freddy Fender - La paloma
TTITLE11=Lucky - Broken dreams
TTITLE12=Charlie Pride - Crystal chandeliers
TTITLE13=John Law - I should have known better
TTITLE14=Lynn Anderson - Snowbird
TTITLE15=Bobby Bare - Detroit City
TTITLE16=Sandy Posey - Bring him home safely to me
TTITLE17=Roy Drusky - Blue eyes crying in the rain
TTITLE18=Ersel Hickey - Blue birds over the mountain
TTITLE19=Kimmie Rhodes and Waylon jennings - Maybe we'll just disappear
EXTD=
EXTT0=
EXTT1=
EXTT2=
EXTT3=
EXTT4=
EXTT5=
EXTT6=
EXTT7=
EXTT8=
EXTT9=
EXTT10=
EXTT11=
EXTT12=
EXTT13=
EXTT14=
EXTT15=
EXTT16=
EXTT17=
EXTT18=
EXTT19=
PLAYORDER=
